# xmcd CD database file
#
# Track frame offsets:
#	150
#	21490
#	43067
#
# Disc length: 720 seconds
#
# Revision: 0
# Processed by: cddbd v1.5PL3 Copyright (c) Steve Scherf et al.
# Submitted via: CDex 1.51
#
DISCID=2202ce03
DTITLE=SPIRAL LIFE - MAYBE TRUE
DYEAR=1995
DGENRE=Pop
TTITLE0=MAYBE TRUE
TTITLE1=TRUST ME
TTITLE2=FLOWRISH PREVIEW
EXTD=YEAR: 1995
EXTT0=
EXTT1=
EXTT2=
PLAYORDER=
